<?xml version="1.0" encoding="utf-8" standalone="no"?>
<!DOCTYPE svg PUBLIC "-//W3C//DTD SVG 1.1//EN"
  "http://www.w3.org/Graphics/SVG/1.1/DTD/svg11.dtd">
<svg xmlns:xlink="http://www.w3.org/1999/xlink" width="713.53125pt" height="425.049687pt" viewBox="0 0 713.53125 425.049687" xmlns="http://www.w3.org/2000/svg" version="1.1">
 <metadata>
  <rdf:RDF xmlns:dc="http://purl.org/dc/elements/1.1/" xmlns:cc="http://creativecommons.org/ns#" xmlns:rdf="http://www.w3.org/1999/02/22-rdf-syntax-ns#">
   <cc:Work>
    <dc:type rdf:resource="http://purl.org/dc/dcmitype/StillImage"/>
    <dc:date>2026-05-09T11:32:33.879215</dc:date>
    <dc:format>image/svg+xml</dc:format>
    <dc:creator>
     <cc:Agent>
      <dc:title>Matplotlib v3.10.9, https://matplotlib.org/</dc:title>
     </cc:Agent>
    </dc:creator>
   </cc:Work>
  </rdf:RDF>
 </metadata>
 <defs>
  <style type="text/css">*{stroke-linejoin: round; stroke-linecap: butt}</style>
 </defs>
 <g id="figure_1">
  <g id="patch_1">
   <path d="M 0 425.049687 
L 713.53125 425.049687 
L 713.53125 0 
L 0 0 
z
" style="fill: #ffffff"/>
  </g>
  <g id="axes_1">
   <g id="patch_2">
    <path d="M 48.90125 385.557812 
L 706.33125 385.557812 
L 706.33125 23.837812 
L 48.90125 23.837812 
z
" style="fill: #ffffff"/>
   </g>
   <g id="patch_3">
    <path d="M 78.784432 385.557812 
L 90.737704 385.557812 
L 90.737704 384.634233 
L 78.784432 384.634233 
z
" clip-path="url(#p66de085aba)" style="fill: #1f77b4; fill-opacity: 0.5; stroke: #000000; stroke-linejoin: miter"/>
   </g>
   <g id="patch_4">
    <path d="M 90.737726 385.557812 
L 102.690998 385.557812 
L 102.690998 383.710653 
L 90.737726 383.710653 
z
" clip-path="url(#p66de085aba)" style="fill: #1f77b4; fill-opacity: 0.5; stroke: #000000; stroke-linejoin: miter"/>
   </g>
   <g id="patch_5">
    <path d="M 102.690976 385.557812 
L 114.644249 385.557812 
L 114.644249 380.016334 
L 102.690976 380.016334 
z
" clip-path="url(#p66de085aba)" style="fill: #1f77b4; fill-opacity: 0.5; stroke: #000000; stroke-linejoin: miter"/>
   </g>
   <g id="patch_6">
    <path d="M 114.64427 385.557812 
L 126.597543 385.557812 
L 126.597543 379.092754 
L 114.64427 379.092754 
z
" clip-path="url(#p66de085aba)" style="fill: #1f77b4; fill-opacity: 0.5; stroke: #000000; stroke-linejoin: miter"/>
   </g>
   <g id="patch_7">
    <path d="M 126.597521 385.557812 
L 138.550793 385.557812 
L 138.550793 369.856957 
L 126.597521 369.856957 
z
" clip-path="url(#p66de085aba)" style="fill: #1f77b4; fill-opacity: 0.5; stroke: #000000; stroke-linejoin: miter"/>
   </g>
   <g id="patch_8">
    <path d="M 138.550815 385.557812 
L 150.504087 385.557812 
L 150.504087 356.003261 
L 138.550815 356.003261 
z
" clip-path="url(#p66de085aba)" style="fill: #1f77b4; fill-opacity: 0.5; stroke: #000000; stroke-linejoin: miter"/>
   </g>
   <g id="patch_9">
    <path d="M 150.504066 385.557812 
L 162.457338 385.557812 
L 162.457338 334.760928 
L 150.504066 334.760928 
z
" clip-path="url(#p66de085aba)" style="fill: #1f77b4; fill-opacity: 0.5; stroke: #000000; stroke-linejoin: miter"/>
   </g>
   <g id="patch_10">
    <path d="M 162.45736 385.557812 
L 174.410632 385.557812 
L 174.410632 308.900695 
L 162.45736 308.900695 
z
" clip-path="url(#p66de085aba)" style="fill: #1f77b4; fill-opacity: 0.5; stroke: #000000; stroke-linejoin: miter"/>
   </g>
   <g id="patch_11">
    <path d="M 174.41061 385.557812 
L 186.363882 385.557812 
L 186.363882 274.728245 
L 174.41061 274.728245 
z
" clip-path="url(#p66de085aba)" style="fill: #1f77b4; fill-opacity: 0.5; stroke: #000000; stroke-linejoin: miter"/>
   </g>
   <g id="patch_12">
    <path d="M 186.363882 385.557812 
L 198.317155 385.557812 
L 198.317155 232.243578 
L 186.363882 232.243578 
z
" clip-path="url(#p66de085aba)" style="fill: #1f77b4; fill-opacity: 0.5; stroke: #000000; stroke-linejoin: miter"/>
   </g>
   <g id="patch_13">
    <path d="M 198.317155 385.557812 
L 210.270427 385.557812 
L 210.270427 221.160621 
L 198.317155 221.160621 
z
" clip-path="url(#p66de085aba)" style="fill: #1f77b4; fill-opacity: 0.5; stroke: #000000; stroke-linejoin: miter"/>
   </g>
   <g id="patch_14">
    <path d="M 210.270427 385.557812 
L 222.223699 385.557812 
L 222.223699 181.446693 
L 210.270427 181.446693 
z
" clip-path="url(#p66de085aba)" style="fill: #1f77b4; fill-opacity: 0.5; stroke: #000000; stroke-linejoin: miter"/>
   </g>
   <g id="patch_15">
    <path d="M 222.223699 385.557812 
L 234.176972 385.557812 
L 234.176972 126.031909 
L 222.223699 126.031909 
z
" clip-path="url(#p66de085aba)" style="fill: #1f77b4; fill-opacity: 0.5; stroke: #000000; stroke-linejoin: miter"/>
   </g>
   <g id="patch_16">
    <path d="M 234.176972 385.557812 
L 246.130244 385.557812 
L 246.130244 121.414011 
L 234.176972 121.414011 
z
" clip-path="url(#p66de085aba)" style="fill: #1f77b4; fill-opacity: 0.5; stroke: #000000; stroke-linejoin: miter"/>
   </g>
   <g id="patch_17">
    <path d="M 246.130244 385.557812 
L 258.083516 385.557812 
L 258.083516 111.254634 
L 246.130244 111.254634 
z
" clip-path="url(#p66de085aba)" style="fill: #1f77b4; fill-opacity: 0.5; stroke: #000000; stroke-linejoin: miter"/>
   </g>
   <g id="patch_18">
    <path d="M 258.083516 385.557812 
L 270.036788 385.557812 
L 270.036788 92.783039 
L 258.083516 92.783039 
z
" clip-path="url(#p66de085aba)" style="fill: #1f77b4; fill-opacity: 0.5; stroke: #000000; stroke-linejoin: miter"/>
   </g>
   <g id="patch_19">
    <path d="M 270.036788 385.557812 
L 281.990061 385.557812 
L 281.990061 98.324517 
L 270.036788 98.324517 
z
" clip-path="url(#p66de085aba)" style="fill: #1f77b4; fill-opacity: 0.5; stroke: #000000; stroke-linejoin: miter"/>
   </g>
   <g id="patch_20">
    <path d="M 281.990061 385.557812 
L 293.943333 385.557812 
L 293.943333 77.082184 
L 281.990061 77.082184 
z
" clip-path="url(#p66de085aba)" style="fill: #1f77b4; fill-opacity: 0.5; stroke: #000000; stroke-linejoin: miter"/>
   </g>
   <g id="patch_21">
    <path d="M 293.943333 385.557812 
L 305.896605 385.557812 
L 305.896605 84.470822 
L 293.943333 84.470822 
z
" clip-path="url(#p66de085aba)" style="fill: #1f77b4; fill-opacity: 0.5; stroke: #000000; stroke-linejoin: miter"/>
   </g>
   <g id="patch_22">
    <path d="M 305.896605 385.557812 
L 317.849878 385.557812 
L 317.849878 92.783039 
L 305.896605 92.783039 
z
" clip-path="url(#p66de085aba)" style="fill: #1f77b4; fill-opacity: 0.5; stroke: #000000; stroke-linejoin: miter"/>
   </g>
   <g id="patch_23">
    <path d="M 317.849878 385.557812 
L 329.80315 385.557812 
L 329.80315 50.298372 
L 317.849878 50.298372 
z
" clip-path="url(#p66de085aba)" style="fill: #1f77b4; fill-opacity: 0.5; stroke: #000000; stroke-linejoin: miter"/>
   </g>
   <g id="patch_24">
    <path d="M 329.80315 385.557812 
L 341.756422 385.557812 
L 341.756422 89.08872 
L 329.80315 89.08872 
z
" clip-path="url(#p66de085aba)" style="fill: #1f77b4; fill-opacity: 0.5; stroke: #000000; stroke-linejoin: miter"/>
   </g>
   <g id="patch_25">
    <path d="M 341.756422 385.557812 
L 353.709695 385.557812 
L 353.709695 49.374792 
L 341.756422 49.374792 
z
" clip-path="url(#p66de085aba)" style="fill: #1f77b4; fill-opacity: 0.5; stroke: #000000; stroke-linejoin: miter"/>
   </g>
   <g id="patch_26">
    <path d="M 353.709695 385.557812 
L 365.662967 385.557812 
L 365.662967 72.464285 
L 353.709695 72.464285 
z
" clip-path="url(#p66de085aba)" style="fill: #1f77b4; fill-opacity: 0.5; stroke: #000000; stroke-linejoin: miter"/>
   </g>
   <g id="patch_27">
    <path d="M 365.662967 385.557812 
L 377.616239 385.557812 
L 377.616239 53.069111 
L 365.662967 53.069111 
z
" clip-path="url(#p66de085aba)" style="fill: #1f77b4; fill-opacity: 0.5; stroke: #000000; stroke-linejoin: miter"/>
   </g>
   <g id="patch_28">
    <path d="M 377.616239 385.557812 
L 389.569511 385.557812 
L 389.569511 108.483894 
L 377.616239 108.483894 
z
" clip-path="url(#p66de085aba)" style="fill: #1f77b4; fill-opacity: 0.5; stroke: #000000; stroke-linejoin: miter"/>
   </g>
   <g id="patch_29">
    <path d="M 389.569511 385.557812 
L 401.522784 385.557812 
L 401.522784 62.304908 
L 389.569511 62.304908 
z
" clip-path="url(#p66de085aba)" style="fill: #1f77b4; fill-opacity: 0.5; stroke: #000000; stroke-linejoin: miter"/>
   </g>
   <g id="patch_30">
    <path d="M 401.522784 385.557812 
L 413.476056 385.557812 
L 413.476056 75.235024 
L 401.522784 75.235024 
z
" clip-path="url(#p66de085aba)" style="fill: #1f77b4; fill-opacity: 0.5; stroke: #000000; stroke-linejoin: miter"/>
   </g>
   <g id="patch_31">
    <path d="M 413.476056 385.557812 
L 425.429328 385.557812 
L 425.429328 59.534169 
L 413.476056 59.534169 
z
" clip-path="url(#p66de085aba)" style="fill: #1f77b4; fill-opacity: 0.5; stroke: #000000; stroke-linejoin: miter"/>
   </g>
   <g id="patch_32">
    <path d="M 425.429328 385.557812 
L 437.382601 385.557812 
L 437.382601 78.929343 
L 425.429328 78.929343 
z
" clip-path="url(#p66de085aba)" style="fill: #1f77b4; fill-opacity: 0.5; stroke: #000000; stroke-linejoin: miter"/>
   </g>
   <g id="patch_33">
    <path d="M 437.382601 385.557812 
L 449.335873 385.557812 
L 449.335873 70.617126 
L 437.382601 70.617126 
z
" clip-path="url(#p66de085aba)" style="fill: #1f77b4; fill-opacity: 0.5; stroke: #000000; stroke-linejoin: miter"/>
   </g>
   <g id="patch_34">
    <path d="M 449.335873 385.557812 
L 461.289145 385.557812 
L 461.289145 79.852923 
L 449.335873 79.852923 
z
" clip-path="url(#p66de085aba)" style="fill: #1f77b4; fill-opacity: 0.5; stroke: #000000; stroke-linejoin: miter"/>
   </g>
   <g id="patch_35">
    <path d="M 461.289145 385.557812 
L 473.242417 385.557812 
L 473.242417 41.062574 
L 461.289145 41.062574 
z
" clip-path="url(#p66de085aba)" style="fill: #1f77b4; fill-opacity: 0.5; stroke: #000000; stroke-linejoin: miter"/>
   </g>
   <g id="patch_36">
    <path d="M 473.242417 385.557812 
L 485.19569 385.557812 
L 485.19569 85.394401 
L 473.242417 85.394401 
z
" clip-path="url(#p66de085aba)" style="fill: #1f77b4; fill-opacity: 0.5; stroke: #000000; stroke-linejoin: miter"/>
   </g>
   <g id="patch_37">
    <path d="M 485.19569 385.557812 
L 497.148962 385.557812 
L 497.148962 97.400938 
L 485.19569 97.400938 
z
" clip-path="url(#p66de085aba)" style="fill: #1f77b4; fill-opacity: 0.5; stroke: #000000; stroke-linejoin: miter"/>
   </g>
   <g id="patch_38">
    <path d="M 497.148962 385.557812 
L 509.102234 385.557812 
L 509.102234 112.178213 
L 497.148962 112.178213 
z
" clip-path="url(#p66de085aba)" style="fill: #1f77b4; fill-opacity: 0.5; stroke: #000000; stroke-linejoin: miter"/>
   </g>
   <g id="patch_39">
    <path d="M 509.102234 385.557812 
L 521.055507 385.557812 
L 521.055507 137.114866 
L 509.102234 137.114866 
z
" clip-path="url(#p66de085aba)" style="fill: #1f77b4; fill-opacity: 0.5; stroke: #000000; stroke-linejoin: miter"/>
   </g>
   <g id="patch_40">
    <path d="M 521.055507 385.557812 
L 533.008779 385.557812 
L 533.008779 150.044982 
L 521.055507 150.044982 
z
" clip-path="url(#p66de085aba)" style="fill: #1f77b4; fill-opacity: 0.5; stroke: #000000; stroke-linejoin: miter"/>
   </g>
   <g id="patch_41">
    <path d="M 533.008779 385.557812 
L 544.962051 385.557812 
L 544.962051 185.141012 
L 533.008779 185.141012 
z
" clip-path="url(#p66de085aba)" style="fill: #1f77b4; fill-opacity: 0.5; stroke: #000000; stroke-linejoin: miter"/>
   </g>
   <g id="patch_42">
    <path d="M 544.962051 385.557812 
L 556.915324 385.557812 
L 556.915324 237.785056 
L 544.962051 237.785056 
z
" clip-path="url(#p66de085aba)" style="fill: #1f77b4; fill-opacity: 0.5; stroke: #000000; stroke-linejoin: miter"/>
   </g>
   <g id="patch_43">
    <path d="M 556.915324 385.557812 
L 568.868596 385.557812 
L 568.868596 258.10381 
L 556.915324 258.10381 
z
" clip-path="url(#p66de085aba)" style="fill: #1f77b4; fill-opacity: 0.5; stroke: #000000; stroke-linejoin: miter"/>
   </g>
   <g id="patch_44">
    <path d="M 568.868618 385.557812 
L 580.82189 385.557812 
L 580.82189 315.365753 
L 568.868618 315.365753 
z
" clip-path="url(#p66de085aba)" style="fill: #1f77b4; fill-opacity: 0.5; stroke: #000000; stroke-linejoin: miter"/>
   </g>
   <g id="patch_45">
    <path d="M 580.821868 385.557812 
L 592.77514 385.557812 
L 592.77514 329.219449 
L 580.821868 329.219449 
z
" clip-path="url(#p66de085aba)" style="fill: #1f77b4; fill-opacity: 0.5; stroke: #000000; stroke-linejoin: miter"/>
   </g>
   <g id="patch_46">
    <path d="M 592.775162 385.557812 
L 604.728434 385.557812 
L 604.728434 354.156102 
L 592.775162 354.156102 
z
" clip-path="url(#p66de085aba)" style="fill: #1f77b4; fill-opacity: 0.5; stroke: #000000; stroke-linejoin: miter"/>
   </g>
   <g id="patch_47">
    <path d="M 604.728413 385.557812 
L 616.681685 385.557812 
L 616.681685 367.086218 
L 604.728413 367.086218 
z
" clip-path="url(#p66de085aba)" style="fill: #1f77b4; fill-opacity: 0.5; stroke: #000000; stroke-linejoin: miter"/>
   </g>
   <g id="patch_48">
    <path d="M 616.681707 385.557812 
L 628.634979 385.557812 
L 628.634979 375.398436 
L 616.681707 375.398436 
z
" clip-path="url(#p66de085aba)" style="fill: #1f77b4; fill-opacity: 0.5; stroke: #000000; stroke-linejoin: miter"/>
   </g>
   <g id="patch_49">
    <path d="M 628.634957 385.557812 
L 640.58823 385.557812 
L 640.58823 383.710653 
L 628.634957 383.710653 
z
" clip-path="url(#p66de085aba)" style="fill: #1f77b4; fill-opacity: 0.5; stroke: #000000; stroke-linejoin: miter"/>
   </g>
   <g id="patch_50">
    <path d="M 640.588251 385.557812 
L 652.541524 385.557812 
L 652.541524 384.634233 
L 640.588251 384.634233 
z
" clip-path="url(#p66de085aba)" style="fill: #1f77b4; fill-opacity: 0.5; stroke: #000000; stroke-linejoin: miter"/>
   </g>
   <g id="patch_51">
    <path d="M 652.541502 385.557812 
L 664.494774 385.557812 
L 664.494774 384.634233 
L 652.541502 384.634233 
z
" clip-path="url(#p66de085aba)" style="fill: #1f77b4; fill-opacity: 0.5; stroke: #000000; stroke-linejoin: miter"/>
   </g>
   <g id="patch_52">
    <path d="M 664.494796 385.557812 
L 676.448068 385.557812 
L 676.448068 383.710653 
L 664.494796 383.710653 
z
" clip-path="url(#p66de085aba)" style="fill: #1f77b4; fill-opacity: 0.5; stroke: #000000; stroke-linejoin: miter"/>
   </g>
   <g id="matplotlib.axis_1">
    <g id="xtick_1">
     <g id="line2d_1">
      <path d="M 100.80488 385.557812 
L 100.80488 23.837812 
" clip-path="url(#p66de085aba)" style="fill: none; stroke: #b0b0b0; stroke-opacity: 0.3; stroke-width: 0.8; stroke-linecap: square"/>
     </g>
     <g id="line2d_2">
      <defs>
       <path id="med12d3dfa8" d="M 0 0 
L 0 3.5 
" style="stroke: #000000; stroke-width: 0.8"/>
      </defs>
      <g>
       <use xlink:href="#med12d3dfa8" x="100.80488" y="385.557812" style="stroke: #000000; stroke-width: 0.8"/>
      </g>
     </g>
     <g id="text_1">
      <!-- −3 -->
      <g transform="translate(93.433786 400.15625) scale(0.1 -0.1)">
       <defs>
        <path id="DejaVuSans-2212" d="M 678 2272 
L 4684 2272 
L 4684 1741 
L 678 1741 
L 678 2272 
z
" transform="scale(0.015625)"/>
        <path id="DejaVuSans-33" d="M 2597 2516 
Q 3050 2419 3304 2112 
Q 3559 1806 3559 1356 
Q 3559 666 3084 287 
Q 2609 -91 1734 -91 
Q 1441 -91 1130 -33 
Q 819 25 488 141 
L 488 750 
Q 750 597 1062 519 
Q 1375 441 1716 441 
Q 2309 441 2620 675 
Q 2931 909 2931 1356 
Q 2931 1769 2642 2001 
Q 2353 2234 1838 2234 
L 1294 2234 
L 1294 2753 
L 1863 2753 
Q 2328 2753 2575 2939 
Q 2822 3125 2822 3475 
Q 2822 3834 2567 4026 
Q 2313 4219 1838 4219 
Q 1578 4219 1281 4162 
Q 984 4106 628 3988 
L 628 4550 
Q 988 4650 1302 4700 
Q 1616 4750 1894 4750 
Q 2613 4750 3031 4423 
Q 3450 4097 3450 3541 
Q 3450 3153 3228 2886 
Q 3006 2619 2597 2516 
z
" transform="scale(0.015625)"/>
       </defs>
       <use xlink:href="#DejaVuSans-2212"/>
       <use xlink:href="#DejaVuSans-33" transform="translate(83.789062 0)"/>
      </g>
     </g>
    </g>
    <g id="xtick_2">
     <g id="line2d_3">
      <path d="M 191.981675 385.557812 
L 191.981675 23.837812 
" clip-path="url(#p66de085aba)" style="fill: none; stroke: #b0b0b0; stroke-opacity: 0.3; stroke-width: 0.8; stroke-linecap: square"/>
     </g>
     <g id="line2d_4">
      <g>
       <use xlink:href="#med12d3dfa8" x="191.981675" y="385.557812" style="stroke: #000000; stroke-width: 0.8"/>
      </g>
     </g>
     <g id="text_2">
      <!-- −2 -->
      <g transform="translate(184.610581 400.15625) scale(0.1 -0.1)">
       <defs>
        <path id="DejaVuSans-32" d="M 1228 531 
L 3431 531 
L 3431 0 
L 469 0 
L 469 531 
Q 828 903 1448 1529 
Q 2069 2156 2228 2338 
Q 2531 2678 2651 2914 
Q 2772 3150 2772 3378 
Q 2772 3750 2511 3984 
Q 2250 4219 1831 4219 
Q 1534 4219 1204 4116 
Q 875 4013 500 3803 
L 500 4441 
Q 881 4594 1212 4672 
Q 1544 4750 1819 4750 
Q 2544 4750 2975 4387 
Q 3406 4025 3406 3419 
Q 3406 3131 3298 2873 
Q 3191 2616 2906 2266 
Q 2828 2175 2409 1742 
Q 1991 1309 1228 531 
z
" transform="scale(0.015625)"/>
       </defs>
       <use xlink:href="#DejaVuSans-2212"/>
       <use xlink:href="#DejaVuSans-32" transform="translate(83.789062 0)"/>
      </g>
     </g>
    </g>
    <g id="xtick_3">
     <g id="line2d_5">
      <path d="M 283.15847 385.557812 
L 283.15847 23.837812 
" clip-path="url(#p66de085aba)" style="fill: none; stroke: #b0b0b0; stroke-opacity: 0.3; stroke-width: 0.8; stroke-linecap: square"/>
     </g>
     <g id="line2d_6">
      <g>
       <use xlink:href="#med12d3dfa8" x="283.15847" y="385.557812" style="stroke: #000000; stroke-width: 0.8"/>
      </g>
     </g>
     <g id="text_3">
      <!-- −1 -->
      <g transform="translate(275.787376 400.15625) scale(0.1 -0.1)">
       <defs>
        <path id="DejaVuSans-31" d="M 794 531 
L 1825 531 
L 1825 4091 
L 703 3866 
L 703 4441 
L 1819 4666 
L 2450 4666 
L 2450 531 
L 3481 531 
L 3481 0 
L 794 0 
L 794 531 
z
" transform="scale(0.015625)"/>
       </defs>
       <use xlink:href="#DejaVuSans-2212"/>
       <use xlink:href="#DejaVuSans-31" transform="translate(83.789062 0)"/>
      </g>
     </g>
    </g>
    <g id="xtick_4">
     <g id="line2d_7">
      <path d="M 374.335265 385.557812 
L 374.335265 23.837812 
" clip-path="url(#p66de085aba)" style="fill: none; stroke: #b0b0b0; stroke-opacity: 0.3; stroke-width: 0.8; stroke-linecap: square"/>
     </g>
     <g id="line2d_8">
      <g>
       <use xlink:href="#med12d3dfa8" x="374.335265" y="385.557812" style="stroke: #000000; stroke-width: 0.8"/>
      </g>
     </g>
     <g id="text_4">
      <!-- 0 -->
      <g transform="translate(371.154015 400.15625) scale(0.1 -0.1)">
       <defs>
        <path id="DejaVuSans-30" d="M 2034 4250 
Q 1547 4250 1301 3770 
Q 1056 3291 1056 2328 
Q 1056 1369 1301 889 
Q 1547 409 2034 409 
Q 2525 409 2770 889 
Q 3016 1369 3016 2328 
Q 3016 3291 2770 3770 
Q 2525 4250 2034 4250 
z
M 2034 4750 
Q 2819 4750 3233 4129 
Q 3647 3509 3647 2328 
Q 3647 1150 3233 529 
Q 2819 -91 2034 -91 
Q 1250 -91 836 529 
Q 422 1150 422 2328 
Q 422 3509 836 4129 
Q 1250 4750 2034 4750 
z
" transform="scale(0.015625)"/>
       </defs>
       <use xlink:href="#DejaVuSans-30"/>
      </g>
     </g>
    </g>
    <g id="xtick_5">
     <g id="line2d_9">
      <path d="M 465.51206 385.557812 
L 465.51206 23.837812 
" clip-path="url(#p66de085aba)" style="fill: none; stroke: #b0b0b0; stroke-opacity: 0.3; stroke-width: 0.8; stroke-linecap: square"/>
     </g>
     <g id="line2d_10">
      <g>
       <use xlink:href="#med12d3dfa8" x="465.51206" y="385.557812" style="stroke: #000000; stroke-width: 0.8"/>
      </g>
     </g>
     <g id="text_5">
      <!-- 1 -->
      <g transform="translate(462.33081 400.15625) scale(0.1 -0.1)">
       <use xlink:href="#DejaVuSans-31"/>
      </g>
     </g>
    </g>
    <g id="xtick_6">
     <g id="line2d_11">
      <path d="M 556.688855 385.557812 
L 556.688855 23.837812 
" clip-path="url(#p66de085aba)" style="fill: none; stroke: #b0b0b0; stroke-opacity: 0.3; stroke-width: 0.8; stroke-linecap: square"/>
     </g>
     <g id="line2d_12">
      <g>
       <use xlink:href="#med12d3dfa8" x="556.688855" y="385.557812" style="stroke: #000000; stroke-width: 0.8"/>
      </g>
     </g>
     <g id="text_6">
      <!-- 2 -->
      <g transform="translate(553.507605 400.15625) scale(0.1 -0.1)">
       <use xlink:href="#DejaVuSans-32"/>
      </g>
     </g>
    </g>
    <g id="xtick_7">
     <g id="line2d_13">
      <path d="M 647.86565 385.557812 
L 647.86565 23.837812 
" clip-path="url(#p66de085aba)" style="fill: none; stroke: #b0b0b0; stroke-opacity: 0.3; stroke-width: 0.8; stroke-linecap: square"/>
     </g>
     <g id="line2d_14">
      <g>
       <use xlink:href="#med12d3dfa8" x="647.86565" y="385.557812" style="stroke: #000000; stroke-width: 0.8"/>
      </g>
     </g>
     <g id="text_7">
      <!-- 3 -->
      <g transform="translate(644.6844 400.15625) scale(0.1 -0.1)">
       <use xlink:href="#DejaVuSans-33"/>
      </g>
     </g>
    </g>
    <g id="text_8">
     <!-- Inversion Error (m/d) -->
     <g transform="translate(315.275313 415.354062) scale(0.12 -0.12)">
      <defs>
       <path id="DejaVuSans-49" d="M 628 4666 
L 1259 4666 
L 1259 0 
L 628 0 
L 628 4666 
z
" transform="scale(0.015625)"/>
       <path id="DejaVuSans-6e" d="M 3513 2113 
L 3513 0 
L 2938 0 
L 2938 2094 
Q 2938 2591 2744 2837 
Q 2550 3084 2163 3084 
Q 1697 3084 1428 2787 
Q 1159 2491 1159 1978 
L 1159 0 
L 581 0 
L 581 3500 
L 1159 3500 
L 1159 2956 
Q 1366 3272 1645 3428 
Q 1925 3584 2291 3584 
Q 2894 3584 3203 3211 
Q 3513 2838 3513 2113 
z
" transform="scale(0.015625)"/>
       <path id="DejaVuSans-76" d="M 191 3500 
L 800 3500 
L 1894 563 
L 2988 3500 
L 3597 3500 
L 2284 0 
L 1503 0 
L 191 3500 
z
" transform="scale(0.015625)"/>
       <path id="DejaVuSans-65" d="M 3597 1894 
L 3597 1613 
L 953 1613 
Q 991 1019 1311 708 
Q 1631 397 2203 397 
Q 2534 397 2845 478 
Q 3156 559 3463 722 
L 3463 178 
Q 3153 47 2828 -22 
Q 2503 -91 2169 -91 
Q 1331 -91 842 396 
Q 353 884 353 1716 
Q 353 2575 817 3079 
Q 1281 3584 2069 3584 
Q 2775 3584 3186 3129 
Q 3597 2675 3597 1894 
z
M 3022 2063 
Q 3016 2534 2758 2815 
Q 2500 3097 2075 3097 
Q 1594 3097 1305 2825 
Q 1016 2553 972 2059 
L 3022 2063 
z
" transform="scale(0.015625)"/>
       <path id="DejaVuSans-72" d="M 2631 2963 
Q 2534 3019 2420 3045 
Q 2306 3072 2169 3072 
Q 1681 3072 1420 2755 
Q 1159 2438 1159 1844 
L 1159 0 
L 581 0 
L 581 3500 
L 1159 3500 
L 1159 2956 
Q 1341 3275 1631 3429 
Q 1922 3584 2338 3584 
Q 2397 3584 2469 3576 
Q 2541 3569 2628 3553 
L 2631 2963 
z
" transform="scale(0.015625)"/>
       <path id="DejaVuSans-73" d="M 2834 3397 
L 2834 2853 
Q 2591 2978 2328 3040 
Q 2066 3103 1784 3103 
Q 1356 3103 1142 2972 
Q 928 2841 928 2578 
Q 928 2378 1081 2264 
Q 1234 2150 1697 2047 
L 1894 2003 
Q 2506 1872 2764 1633 
Q 3022 1394 3022 966 
Q 3022 478 2636 193 
Q 2250 -91 1575 -91 
Q 1294 -91 989 -36 
Q 684 19 347 128 
L 347 722 
Q 666 556 975 473 
Q 1284 391 1588 391 
Q 1994 391 2212 530 
Q 2431 669 2431 922 
Q 2431 1156 2273 1281 
Q 2116 1406 1581 1522 
L 1381 1569 
Q 847 1681 609 1914 
Q 372 2147 372 2553 
Q 372 3047 722 3315 
Q 1072 3584 1716 3584 
Q 2034 3584 2315 3537 
Q 2597 3491 2834 3397 
z
" transform="scale(0.015625)"/>
       <path id="DejaVuSans-69" d="M 603 3500 
L 1178 3500 
L 1178 0 
L 603 0 
L 603 3500 
z
M 603 4863 
L 1178 4863 
L 1178 4134 
L 603 4134 
L 603 4863 
z
" transform="scale(0.015625)"/>
       <path id="DejaVuSans-6f" d="M 1959 3097 
Q 1497 3097 1228 2736 
Q 959 2375 959 1747 
Q 959 1119 1226 758 
Q 1494 397 1959 397 
Q 2419 397 2687 759 
Q 2956 1122 2956 1747 
Q 2956 2369 2687 2733 
Q 2419 3097 1959 3097 
z
M 1959 3584 
Q 2709 3584 3137 3096 
Q 3566 2609 3566 1747 
Q 3566 888 3137 398 
Q 2709 -91 1959 -91 
Q 1206 -91 779 398 
Q 353 888 353 1747 
Q 353 2609 779 3096 
Q 1206 3584 1959 3584 
z
" transform="scale(0.015625)"/>
       <path id="DejaVuSans-20" transform="scale(0.015625)"/>
       <path id="DejaVuSans-45" d="M 628 4666 
L 3578 4666 
L 3578 4134 
L 1259 4134 
L 1259 2753 
L 3481 2753 
L 3481 2222 
L 1259 2222 
L 1259 531 
L 3634 531 
L 3634 0 
L 628 0 
L 628 4666 
z
" transform="scale(0.015625)"/>
       <path id="DejaVuSans-28" d="M 1984 4856 
Q 1566 4138 1362 3434 
Q 1159 2731 1159 2009 
Q 1159 1288 1364 580 
Q 1569 -128 1984 -844 
L 1484 -844 
Q 1016 -109 783 600 
Q 550 1309 550 2009 
Q 550 2706 781 3412 
Q 1013 4119 1484 4856 
L 1984 4856 
z
" transform="scale(0.015625)"/>
       <path id="DejaVuSans-6d" d="M 3328 2828 
Q 3544 3216 3844 3400 
Q 4144 3584 4550 3584 
Q 5097 3584 5394 3201 
Q 5691 2819 5691 2113 
L 5691 0 
L 5113 0 
L 5113 2094 
Q 5113 2597 4934 2840 
Q 4756 3084 4391 3084 
Q 3944 3084 3684 2787 
Q 3425 2491 3425 1978 
L 3425 0 
L 2847 0 
L 2847 2094 
Q 2847 2600 2669 2842 
Q 2491 3084 2119 3084 
Q 1678 3084 1418 2786 
Q 1159 2488 1159 1978 
L 1159 0 
L 581 0 
L 581 3500 
L 1159 3500 
L 1159 2956 
Q 1356 3278 1631 3431 
Q 1906 3584 2284 3584 
Q 2666 3584 2933 3390 
Q 3200 3197 3328 2828 
z
" transform="scale(0.015625)"/>
       <path id="DejaVuSans-2f" d="M 1625 4666 
L 2156 4666 
L 531 -594 
L 0 -594 
L 1625 4666 
z
" transform="scale(0.015625)"/>
       <path id="DejaVuSans-64" d="M 2906 2969 
L 2906 4863 
L 3481 4863 
L 3481 0 
L 2906 0 
L 2906 525 
Q 2725 213 2448 61 
Q 2172 -91 1784 -91 
Q 1150 -91 751 415 
Q 353 922 353 1747 
Q 353 2572 751 3078 
Q 1150 3584 1784 3584 
Q 2172 3584 2448 3432 
Q 2725 3281 2906 2969 
z
M 947 1747 
Q 947 1113 1208 752 
Q 1469 391 1925 391 
Q 2381 391 2643 752 
Q 2906 1113 2906 1747 
Q 2906 2381 2643 2742 
Q 2381 3103 1925 3103 
Q 1469 3103 1208 2742 
Q 947 2381 947 1747 
z
" transform="scale(0.015625)"/>
       <path id="DejaVuSans-29" d="M 513 4856 
L 1013 4856 
Q 1481 4119 1714 3412 
Q 1947 2706 1947 2009 
Q 1947 1309 1714 600 
Q 1481 -109 1013 -844 
L 513 -844 
Q 928 -128 1133 580 
Q 1338 1288 1338 2009 
Q 1338 2731 1133 3434 
Q 928 4138 513 4856 
z
" transform="scale(0.015625)"/>
      </defs>
      <use xlink:href="#DejaVuSans-49"/>
      <use xlink:href="#DejaVuSans-6e" transform="translate(29.492188 0)"/>
      <use xlink:href="#DejaVuSans-76" transform="translate(92.871094 0)"/>
      <use xlink:href="#DejaVuSans-65" transform="translate(152.050781 0)"/>
      <use xlink:href="#DejaVuSans-72" transform="translate(213.574219 0)"/>
      <use xlink:href="#DejaVuSans-73" transform="translate(254.6875 0)"/>
      <use xlink:href="#DejaVuSans-69" transform="translate(306.787109 0)"/>
      <use xlink:href="#DejaVuSans-6f" transform="translate(334.570312 0)"/>
      <use xlink:href="#DejaVuSans-6e" transform="translate(395.751953 0)"/>
      <use xlink:href="#DejaVuSans-20" transform="translate(459.130859 0)"/>
      <use xlink:href="#DejaVuSans-45" transform="translate(490.917969 0)"/>
      <use xlink:href="#DejaVuSans-72" transform="translate(554.101562 0)"/>
      <use xlink:href="#DejaVuSans-72" transform="translate(593.464844 0)"/>
      <use xlink:href="#DejaVuSans-6f" transform="translate(632.328125 0)"/>
      <use xlink:href="#DejaVuSans-72" transform="translate(693.509766 0)"/>
      <use xlink:href="#DejaVuSans-20" transform="translate(734.623047 0)"/>
      <use xlink:href="#DejaVuSans-28" transform="translate(766.410156 0)"/>
      <use xlink:href="#DejaVuSans-6d" transform="translate(805.423828 0)"/>
      <use xlink:href="#DejaVuSans-2f" transform="translate(902.835938 0)"/>
      <use xlink:href="#DejaVuSans-64" transform="translate(936.527344 0)"/>
      <use xlink:href="#DejaVuSans-29" transform="translate(1000.003906 0)"/>
     </g>
    </g>
   </g>
   <g id="matplotlib.axis_2">
    <g id="ytick_1">
     <g id="line2d_15">
      <path d="M 48.90125 385.557812 
L 706.33125 385.557812 
" clip-path="url(#p66de085aba)" style="fill: none; stroke: #b0b0b0; stroke-opacity: 0.3; stroke-width: 0.8; stroke-linecap: square"/>
     </g>
     <g id="line2d_16">
      <defs>
       <path id="m561a2c57fc" d="M 0 0 
L -3.5 0 
" style="stroke: #000000; stroke-width: 0.8"/>
      </defs>
      <g>
       <use xlink:href="#m561a2c57fc" x="48.90125" y="385.557812" style="stroke: #000000; stroke-width: 0.8"/>
      </g>
     </g>
     <g id="text_9">
      <!-- 0 -->
      <g transform="translate(35.53875 389.357031) scale(0.1 -0.1)">
       <use xlink:href="#DejaVuSans-30"/>
      </g>
     </g>
    </g>
    <g id="ytick_2">
     <g id="line2d_17">
      <path d="M 48.90125 339.378826 
L 706.33125 339.378826 
" clip-path="url(#p66de085aba)" style="fill: none; stroke: #b0b0b0; stroke-opacity: 0.3; stroke-width: 0.8; stroke-linecap: square"/>
     </g>
     <g id="line2d_18">
      <g>
       <use xlink:href="#m561a2c57fc" x="48.90125" y="339.378826" style="stroke: #000000; stroke-width: 0.8"/>
      </g>
     </g>
     <g id="text_10">
      <!-- 50 -->
      <g transform="translate(29.17625 343.178045) scale(0.1 -0.1)">
       <defs>
        <path id="DejaVuSans-35" d="M 691 4666 
L 3169 4666 
L 3169 4134 
L 1269 4134 
L 1269 2991 
Q 1406 3038 1543 3061 
Q 1681 3084 1819 3084 
Q 2600 3084 3056 2656 
Q 3513 2228 3513 1497 
Q 3513 744 3044 326 
Q 2575 -91 1722 -91 
Q 1428 -91 1123 -41 
Q 819 9 494 109 
L 494 744 
Q 775 591 1075 516 
Q 1375 441 1709 441 
Q 2250 441 2565 725 
Q 2881 1009 2881 1497 
Q 2881 1984 2565 2268 
Q 2250 2553 1709 2553 
Q 1456 2553 1204 2497 
Q 953 2441 691 2322 
L 691 4666 
z
" transform="scale(0.015625)"/>
       </defs>
       <use xlink:href="#DejaVuSans-35"/>
       <use xlink:href="#DejaVuSans-30" transform="translate(63.623047 0)"/>
      </g>
     </g>
    </g>
    <g id="ytick_3">
     <g id="line2d_19">
      <path d="M 48.90125 293.19984 
L 706.33125 293.19984 
" clip-path="url(#p66de085aba)" style="fill: none; stroke: #b0b0b0; stroke-opacity: 0.3; stroke-width: 0.8; stroke-linecap: square"/>
     </g>
     <g id="line2d_20">
      <g>
       <use xlink:href="#m561a2c57fc" x="48.90125" y="293.19984" style="stroke: #000000; stroke-width: 0.8"/>
      </g>
     </g>
     <g id="text_11">
      <!-- 100 -->
      <g transform="translate(22.81375 296.999059) scale(0.1 -0.1)">
       <use xlink:href="#DejaVuSans-31"/>
       <use xlink:href="#DejaVuSans-30" transform="translate(63.623047 0)"/>
       <use xlink:href="#DejaVuSans-30" transform="translate(127.246094 0)"/>
      </g>
     </g>
    </g>
    <g id="ytick_4">
     <g id="line2d_21">
      <path d="M 48.90125 247.020853 
L 706.33125 247.020853 
" clip-path="url(#p66de085aba)" style="fill: none; stroke: #b0b0b0; stroke-opacity: 0.3; stroke-width: 0.8; stroke-linecap: square"/>
     </g>
     <g id="line2d_22">
      <g>
       <use xlink:href="#m561a2c57fc" x="48.90125" y="247.020853" style="stroke: #000000; stroke-width: 0.8"/>
      </g>
     </g>
     <g id="text_12">
      <!-- 150 -->
      <g transform="translate(22.81375 250.820072) scale(0.1 -0.1)">
       <use xlink:href="#DejaVuSans-31"/>
       <use xlink:href="#DejaVuSans-35" transform="translate(63.623047 0)"/>
       <use xlink:href="#DejaVuSans-30" transform="translate(127.246094 0)"/>
      </g>
     </g>
    </g>
    <g id="ytick_5">
     <g id="line2d_23">
      <path d="M 48.90125 200.841867 
L 706.33125 200.841867 
" clip-path="url(#p66de085aba)" style="fill: none; stroke: #b0b0b0; stroke-opacity: 0.3; stroke-width: 0.8; stroke-linecap: square"/>
     </g>
     <g id="line2d_24">
      <g>
       <use xlink:href="#m561a2c57fc" x="48.90125" y="200.841867" style="stroke: #000000; stroke-width: 0.8"/>
      </g>
     </g>
     <g id="text_13">
      <!-- 200 -->
      <g transform="translate(22.81375 204.641086) scale(0.1 -0.1)">
       <use xlink:href="#DejaVuSans-32"/>
       <use xlink:href="#DejaVuSans-30" transform="translate(63.623047 0)"/>
       <use xlink:href="#DejaVuSans-30" transform="translate(127.246094 0)"/>
      </g>
     </g>
    </g>
    <g id="ytick_6">
     <g id="line2d_25">
      <path d="M 48.90125 154.662881 
L 706.33125 154.662881 
" clip-path="url(#p66de085aba)" style="fill: none; stroke: #b0b0b0; stroke-opacity: 0.3; stroke-width: 0.8; stroke-linecap: square"/>
     </g>
     <g id="line2d_26">
      <g>
       <use xlink:href="#m561a2c57fc" x="48.90125" y="154.662881" style="stroke: #000000; stroke-width: 0.8"/>
      </g>
     </g>
     <g id="text_14">
      <!-- 250 -->
      <g transform="translate(22.81375 158.4621) scale(0.1 -0.1)">
       <use xlink:href="#DejaVuSans-32"/>
       <use xlink:href="#DejaVuSans-35" transform="translate(63.623047 0)"/>
       <use xlink:href="#DejaVuSans-30" transform="translate(127.246094 0)"/>
      </g>
     </g>
    </g>
    <g id="ytick_7">
     <g id="line2d_27">
      <path d="M 48.90125 108.483894 
L 706.33125 108.483894 
" clip-path="url(#p66de085aba)" style="fill: none; stroke: #b0b0b0; stroke-opacity: 0.3; stroke-width: 0.8; stroke-linecap: square"/>
     </g>
     <g id="line2d_28">
      <g>
       <use xlink:href="#m561a2c57fc" x="48.90125" y="108.483894" style="stroke: #000000; stroke-width: 0.8"/>
      </g>
     </g>
     <g id="text_15">
      <!-- 300 -->
      <g transform="translate(22.81375 112.283113) scale(0.1 -0.1)">
       <use xlink:href="#DejaVuSans-33"/>
       <use xlink:href="#DejaVuSans-30" transform="translate(63.623047 0)"/>
       <use xlink:href="#DejaVuSans-30" transform="translate(127.246094 0)"/>
      </g>
     </g>
    </g>
    <g id="ytick_8">
     <g id="line2d_29">
      <path d="M 48.90125 62.304908 
L 706.33125 62.304908 
" clip-path="url(#p66de085aba)" style="fill: none; stroke: #b0b0b0; stroke-opacity: 0.3; stroke-width: 0.8; stroke-linecap: square"/>
     </g>
     <g id="line2d_30">
      <g>
       <use xlink:href="#m561a2c57fc" x="48.90125" y="62.304908" style="stroke: #000000; stroke-width: 0.8"/>
      </g>
     </g>
     <g id="text_16">
      <!-- 350 -->
      <g transform="translate(22.81375 66.104127) scale(0.1 -0.1)">
       <use xlink:href="#DejaVuSans-33"/>
       <use xlink:href="#DejaVuSans-35" transform="translate(63.623047 0)"/>
       <use xlink:href="#DejaVuSans-30" transform="translate(127.246094 0)"/>
      </g>
     </g>
    </g>
    <g id="text_17">
     <!-- Frequency -->
     <g transform="translate(16.318125 235.693437) rotate(-90) scale(0.12 -0.12)">
      <defs>
       <path id="DejaVuSans-46" d="M 628 4666 
L 3309 4666 
L 3309 4134 
L 1259 4134 
L 1259 2759 
L 3109 2759 
L 3109 2228 
L 1259 2228 
L 1259 0 
L 628 0 
L 628 4666 
z
" transform="scale(0.015625)"/>
       <path id="DejaVuSans-71" d="M 947 1747 
Q 947 1113 1208 752 
Q 1469 391 1925 391 
Q 2381 391 2643 752 
Q 2906 1113 2906 1747 
Q 2906 2381 2643 2742 
Q 2381 3103 1925 3103 
Q 1469 3103 1208 2742 
Q 947 2381 947 1747 
z
M 2906 525 
Q 2725 213 2448 61 
Q 2172 -91 1784 -91 
Q 1150 -91 751 415 
Q 353 922 353 1747 
Q 353 2572 751 3078 
Q 1150 3584 1784 3584 
Q 2172 3584 2448 3432 
Q 2725 3281 2906 2969 
L 2906 3500 
L 3481 3500 
L 3481 -1331 
L 2906 -1331 
L 2906 525 
z
" transform="scale(0.015625)"/>
       <path id="DejaVuSans-75" d="M 544 1381 
L 544 3500 
L 1119 3500 
L 1119 1403 
Q 1119 906 1312 657 
Q 1506 409 1894 409 
Q 2359 409 2629 706 
Q 2900 1003 2900 1516 
L 2900 3500 
L 3475 3500 
L 3475 0 
L 2900 0 
L 2900 538 
Q 2691 219 2414 64 
Q 2138 -91 1772 -91 
Q 1169 -91 856 284 
Q 544 659 544 1381 
z
M 1991 3584 
L 1991 3584 
z
" transform="scale(0.015625)"/>
       <path id="DejaVuSans-63" d="M 3122 3366 
L 3122 2828 
Q 2878 2963 2633 3030 
Q 2388 3097 2138 3097 
Q 1578 3097 1268 2742 
Q 959 2388 959 1747 
Q 959 1106 1268 751 
Q 1578 397 2138 397 
Q 2388 397 2633 464 
Q 2878 531 3122 666 
L 3122 134 
Q 2881 22 2623 -34 
Q 2366 -91 2075 -91 
Q 1284 -91 818 406 
Q 353 903 353 1747 
Q 353 2603 823 3093 
Q 1294 3584 2113 3584 
Q 2378 3584 2631 3529 
Q 2884 3475 3122 3366 
z
" transform="scale(0.015625)"/>
       <path id="DejaVuSans-79" d="M 2059 -325 
Q 1816 -950 1584 -1140 
Q 1353 -1331 966 -1331 
L 506 -1331 
L 506 -850 
L 844 -850 
Q 1081 -850 1212 -737 
Q 1344 -625 1503 -206 
L 1606 56 
L 191 3500 
L 800 3500 
L 1894 763 
L 2988 3500 
L 3597 3500 
L 2059 -325 
z
" transform="scale(0.015625)"/>
      </defs>
      <use xlink:href="#DejaVuSans-46"/>
      <use xlink:href="#DejaVuSans-72" transform="translate(50.269531 0)"/>
      <use xlink:href="#DejaVuSans-65" transform="translate(89.132812 0)"/>
      <use xlink:href="#DejaVuSans-71" transform="translate(150.65625 0)"/>
      <use xlink:href="#DejaVuSans-75" transform="translate(214.132812 0)"/>
      <use xlink:href="#DejaVuSans-65" transform="translate(277.511719 0)"/>
      <use xlink:href="#DejaVuSans-6e" transform="translate(339.035156 0)"/>
      <use xlink:href="#DejaVuSans-63" transform="translate(402.414062 0)"/>
      <use xlink:href="#DejaVuSans-79" transform="translate(457.394531 0)"/>
     </g>
    </g>
   </g>
   <g id="line2d_31">
    <path d="M 78.784432 384.458394 
L 84.791101 383.902387 
L 90.797771 383.163128 
L 96.80444 382.207857 
L 102.81111 380.972597 
L 105.814445 380.214385 
L 108.817779 379.334744 
L 111.821114 378.307819 
L 114.824449 377.104778 
L 117.827784 375.695152 
L 120.831118 374.048277 
L 123.834453 372.13463 
L 126.837788 369.926873 
L 129.841123 367.400522 
L 132.844457 364.534271 
L 135.847792 361.310097 
L 138.851127 357.713281 
L 141.854462 353.732527 
L 144.857796 349.360284 
L 147.861131 344.593312 
L 150.864466 339.433504 
L 153.8678 333.888858 
L 156.871135 327.974506 
L 159.87447 321.713588 
L 162.877805 315.137732 
L 168.884474 301.207892 
L 174.891144 286.572603 
L 189.907817 249.07242 
L 198.917822 226.061533 
L 204.924491 210.064091 
L 219.941165 169.017834 
L 222.9445 161.303255 
L 225.947834 153.988057 
L 228.951169 147.144182 
L 231.954504 140.815147 
L 234.957839 135.014722 
L 237.961173 129.729875 
L 240.964508 124.926986 
L 243.967843 120.559894 
L 246.971178 116.578146 
L 249.974512 112.934071 
L 252.977847 109.587688 
L 255.981182 106.509033 
L 258.984517 103.678006 
L 261.987851 101.082261 
L 264.991186 98.713917 
L 267.994521 96.565904 
L 270.997856 94.628703 
L 274.00119 92.88803 
L 277.004525 91.323791 
L 283.011195 88.618113 
L 289.017864 86.272757 
L 319.051212 75.064684 
L 334.067885 69.439944 
L 340.074555 67.533217 
L 343.07789 66.80535 
L 346.081224 66.296824 
L 349.084559 66.054462 
L 352.087894 66.112775 
L 355.091229 66.487568 
L 358.094563 67.171205 
L 361.097898 68.130295 
L 364.101233 69.306284 
L 373.111237 73.267967 
L 376.114572 74.404258 
L 379.117907 75.29777 
L 382.121241 75.886241 
L 385.124576 76.136198 
L 388.127911 76.046013 
L 391.131245 75.645179 
L 394.13458 74.98994 
L 400.14125 73.229614 
L 406.147919 71.439784 
L 409.151254 70.719695 
L 412.154589 70.181607 
L 415.157923 69.846983 
L 418.161258 69.714516 
L 421.164593 69.762149 
L 427.171262 70.23071 
L 436.181267 71.078079 
L 442.187936 71.259604 
L 448.194606 71.100518 
L 454.201275 70.958994 
L 457.20461 71.080709 
L 460.207945 71.443456 
L 463.211279 72.125868 
L 466.214614 73.192272 
L 469.217949 74.686667 
L 472.221284 76.629475 
L 475.224618 79.017535 
L 478.227953 81.827175 
L 481.231288 85.019663 
L 484.234623 88.547892 
L 487.237957 92.36305 
L 490.241292 96.420222 
L 496.247962 105.121893 
L 502.254631 114.475921 
L 508.261301 124.462042 
L 514.26797 135.200424 
L 517.271305 140.923774 
L 520.27464 146.933995 
L 523.277974 153.272399 
L 526.281309 159.977846 
L 529.284644 167.081526 
L 532.287979 174.601713 
L 535.291313 182.539386 
L 538.294648 190.875549 
L 544.301318 208.567134 
L 553.311322 236.593974 
L 559.317991 255.301148 
L 565.324661 273.314544 
L 571.33133 290.187734 
L 574.334665 298.101971 
L 577.338 305.635285 
L 580.341335 312.772043 
L 583.344669 319.502093 
L 586.348004 325.819667 
L 589.351339 331.72266 
L 592.354674 337.21238 
L 595.358008 342.293689 
L 598.361343 346.975389 
L 601.364678 351.270564 
L 604.368013 355.19659 
L 607.371347 358.774616 
L 610.374682 362.028438 
L 613.378017 364.982888 
L 616.381352 367.66204 
L 619.384686 370.087563 
L 622.388021 372.2776 
L 625.391356 374.246368 
L 628.39469 376.004551 
L 631.398025 377.560359 
L 634.40136 378.920972 
L 637.404695 380.09405 
L 640.408029 381.088991 
L 643.411364 381.917716 
L 646.414699 382.594885 
L 649.418034 383.137563 
L 655.424703 383.89508 
L 661.431373 384.342375 
L 670.441377 384.713233 
L 676.448046 384.883971 
L 676.448046 384.883971 
" clip-path="url(#p66de085aba)" style="fill: none; stroke: #1f77b4; stroke-width: 1.5; stroke-linecap: square"/>
   </g>
   <g id="line2d_32">
    <path d="M 374.335265 385.557812 
L 374.335265 23.837812 
" clip-path="url(#p66de085aba)" style="fill: none; stroke-dasharray: 7.4,3.2; stroke-dashoffset: 0; stroke: #ff0000; stroke-width: 2"/>
   </g>
   <g id="patch_53">
    <path d="M 48.90125 385.557812 
L 48.90125 23.837812 
" style="fill: none; stroke: #000000; stroke-width: 0.8; stroke-linejoin: miter; stroke-linecap: square"/>
   </g>
   <g id="patch_54">
    <path d="M 706.33125 385.557812 
L 706.33125 23.837812 
" style="fill: none; stroke: #000000; stroke-width: 0.8; stroke-linejoin: miter; stroke-linecap: square"/>
   </g>
   <g id="patch_55">
    <path d="M 48.90125 385.557812 
L 706.33125 385.557812 
" style="fill: none; stroke: #000000; stroke-width: 0.8; stroke-linejoin: miter; stroke-linecap: square"/>
   </g>
   <g id="patch_56">
    <path d="M 48.90125 23.837812 
L 706.33125 23.837812 
" style="fill: none; stroke: #000000; stroke-width: 0.8; stroke-linejoin: miter; stroke-linecap: square"/>
   </g>
   <g id="text_18">
    <!-- Permeability Inversion Error Distribution -->
    <g transform="translate(237.296875 17.837812) scale(0.14 -0.14)">
     <defs>
      <path id="DejaVuSans-50" d="M 1259 4147 
L 1259 2394 
L 2053 2394 
Q 2494 2394 2734 2622 
Q 2975 2850 2975 3272 
Q 2975 3691 2734 3919 
Q 2494 4147 2053 4147 
L 1259 4147 
z
M 628 4666 
L 2053 4666 
Q 2838 4666 3239 4311 
Q 3641 3956 3641 3272 
Q 3641 2581 3239 2228 
Q 2838 1875 2053 1875 
L 1259 1875 
L 1259 0 
L 628 0 
L 628 4666 
z
" transform="scale(0.015625)"/>
      <path id="DejaVuSans-61" d="M 2194 1759 
Q 1497 1759 1228 1600 
Q 959 1441 959 1056 
Q 959 750 1161 570 
Q 1363 391 1709 391 
Q 2188 391 2477 730 
Q 2766 1069 2766 1631 
L 2766 1759 
L 2194 1759 
z
M 3341 1997 
L 3341 0 
L 2766 0 
L 2766 531 
Q 2569 213 2275 61 
Q 1981 -91 1556 -91 
Q 1019 -91 701 211 
Q 384 513 384 1019 
Q 384 1609 779 1909 
Q 1175 2209 1959 2209 
L 2766 2209 
L 2766 2266 
Q 2766 2663 2505 2880 
Q 2244 3097 1772 3097 
Q 1472 3097 1187 3025 
Q 903 2953 641 2809 
L 641 3341 
Q 956 3463 1253 3523 
Q 1550 3584 1831 3584 
Q 2591 3584 2966 3190 
Q 3341 2797 3341 1997 
z
" transform="scale(0.015625)"/>
      <path id="DejaVuSans-62" d="M 3116 1747 
Q 3116 2381 2855 2742 
Q 2594 3103 2138 3103 
Q 1681 3103 1420 2742 
Q 1159 2381 1159 1747 
Q 1159 1113 1420 752 
Q 1681 391 2138 391 
Q 2594 391 2855 752 
Q 3116 1113 3116 1747 
z
M 1159 2969 
Q 1341 3281 1617 3432 
Q 1894 3584 2278 3584 
Q 2916 3584 3314 3078 
Q 3713 2572 3713 1747 
Q 3713 922 3314 415 
Q 2916 -91 2278 -91 
Q 1894 -91 1617 61 
Q 1341 213 1159 525 
L 1159 0 
L 581 0 
L 581 4863 
L 1159 4863 
L 1159 2969 
z
" transform="scale(0.015625)"/>
      <path id="DejaVuSans-6c" d="M 603 4863 
L 1178 4863 
L 1178 0 
L 603 0 
L 603 4863 
z
" transform="scale(0.015625)"/>
      <path id="DejaVuSans-74" d="M 1172 4494 
L 1172 3500 
L 2356 3500 
L 2356 3053 
L 1172 3053 
L 1172 1153 
Q 1172 725 1289 603 
Q 1406 481 1766 481 
L 2356 481 
L 2356 0 
L 1766 0 
Q 1100 0 847 248 
Q 594 497 594 1153 
L 594 3053 
L 172 3053 
L 172 3500 
L 594 3500 
L 594 4494 
L 1172 4494 
z
" transform="scale(0.015625)"/>
      <path id="DejaVuSans-44" d="M 1259 4147 
L 1259 519 
L 2022 519 
Q 2988 519 3436 956 
Q 3884 1394 3884 2338 
Q 3884 3275 3436 3711 
Q 2988 4147 2022 4147 
L 1259 4147 
z
M 628 4666 
L 1925 4666 
Q 3281 4666 3915 4102 
Q 4550 3538 4550 2338 
Q 4550 1131 3912 565 
Q 3275 0 1925 0 
L 628 0 
L 628 4666 
z
" transform="scale(0.015625)"/>
     </defs>
     <use xlink:href="#DejaVuSans-50"/>
     <use xlink:href="#DejaVuSans-65" transform="translate(56.677734 0)"/>
     <use xlink:href="#DejaVuSans-72" transform="translate(118.201172 0)"/>
     <use xlink:href="#DejaVuSans-6d" transform="translate(157.564453 0)"/>
     <use xlink:href="#DejaVuSans-65" transform="translate(254.976562 0)"/>
     <use xlink:href="#DejaVuSans-61" transform="translate(316.5 0)"/>
     <use xlink:href="#DejaVuSans-62" transform="translate(377.779297 0)"/>
     <use xlink:href="#DejaVuSans-69" transform="translate(441.255859 0)"/>
     <use xlink:href="#DejaVuSans-6c" transform="translate(469.039062 0)"/>
     <use xlink:href="#DejaVuSans-69" transform="translate(496.822266 0)"/>
     <use xlink:href="#DejaVuSans-74" transform="translate(524.605469 0)"/>
     <use xlink:href="#DejaVuSans-79" transform="translate(563.814453 0)"/>
     <use xlink:href="#DejaVuSans-20" transform="translate(622.994141 0)"/>
     <use xlink:href="#DejaVuSans-49" transform="translate(654.78125 0)"/>
     <use xlink:href="#DejaVuSans-6e" transform="translate(684.273438 0)"/>
     <use xlink:href="#DejaVuSans-76" transform="translate(747.652344 0)"/>
     <use xlink:href="#DejaVuSans-65" transform="translate(806.832031 0)"/>
     <use xlink:href="#DejaVuSans-72" transform="translate(868.355469 0)"/>
     <use xlink:href="#DejaVuSans-73" transform="translate(909.46875 0)"/>
     <use xlink:href="#DejaVuSans-69" transform="translate(961.568359 0)"/>
     <use xlink:href="#DejaVuSans-6f" transform="translate(989.351562 0)"/>
     <use xlink:href="#DejaVuSans-6e" transform="translate(1050.533203 0)"/>
     <use xlink:href="#DejaVuSans-20" transform="translate(1113.912109 0)"/>
     <use xlink:href="#DejaVuSans-45" transform="translate(1145.699219 0)"/>
     <use xlink:href="#DejaVuSans-72" transform="translate(1208.882812 0)"/>
     <use xlink:href="#DejaVuSans-72" transform="translate(1248.246094 0)"/>
     <use xlink:href="#DejaVuSans-6f" transform="translate(1287.109375 0)"/>
     <use xlink:href="#DejaVuSans-72" transform="translate(1348.291016 0)"/>
     <use xlink:href="#DejaVuSans-20" transform="translate(1389.404297 0)"/>
     <use xlink:href="#DejaVuSans-44" transform="translate(1421.191406 0)"/>
     <use xlink:href="#DejaVuSans-69" transform="translate(1498.193359 0)"/>
     <use xlink:href="#DejaVuSans-73" transform="translate(1525.976562 0)"/>
     <use xlink:href="#DejaVuSans-74" transform="translate(1578.076172 0)"/>
     <use xlink:href="#DejaVuSans-72" transform="translate(1617.285156 0)"/>
     <use xlink:href="#DejaVuSans-69" transform="translate(1658.398438 0)"/>
     <use xlink:href="#DejaVuSans-62" transform="translate(1686.181641 0)"/>
     <use xlink:href="#DejaVuSans-75" transform="translate(1749.658203 0)"/>
     <use xlink:href="#DejaVuSans-74" transform="translate(1813.037109 0)"/>
     <use xlink:href="#DejaVuSans-69" transform="translate(1852.246094 0)"/>
     <use xlink:href="#DejaVuSans-6f" transform="translate(1880.029297 0)"/>
     <use xlink:href="#DejaVuSans-6e" transform="translate(1941.210938 0)"/>
    </g>
   </g>
  </g>
 </g>
 <defs>
  <clipPath id="p66de085aba">
   <rect x="48.90125" y="23.837812" width="657.43" height="361.72"/>
  </clipPath>
 </defs>
</svg>
